# xmcd
#
# Track frame offsets:
#  150
#  11252
#  24277
#  41785
#  57010
#  70860
#  86437
#  100592
#  111335
#  127842
#
# Disc length: 1867 seconds
#
# Revision: 3
# Processed by: cddbd v1.4PL0 Copyright (c) Steve Scherf et al.
# Submitted via: AltoMP3_Maker 3.0
#
DISCID=6e07490a
DTITLE=George Jones - High-Tech Redneck
DYEAR=1900
DGENRE=
TTITLE0=High-Tech Redneck
TTITLE1=I've Still Got Some Hurtin' Left To Do
TTITLE2=The Love In Your Eyes
TTITLE3=The Visit
TTITLE4=Silent Partners
TTITLE5=Tear Me Out Of The Picture
TTITLE6=A Thousand Times A Day
TTITLE7=Never Bit A Bullet Like This (Duet With Sammy Kershaw)
TTITLE8=Forever's Here To Stay
TTITLE9=Hello Darlin'
EXTD=
EXTT0=
EXTT1=
EXTT2=
EXTT3=
EXTT4=
EXTT5=
EXTT6=
EXTT7=
EXTT8=
EXTT9=
PLAYORDER=
